<svg xmlns="http://www.w3.org/2000/svg" version="1.1" xmlns:xlink="http://www.w3.org/1999/xlink" xmlns:svgjs="http://svgjs.com/svgjs" width="1080" height="1080" preserveAspectRatio="none" viewBox="0 0 1080 1080">
    <g mask="url(&quot;#SvgjsMask1053&quot;)" fill="none">
        <path d="M17.9 52.63L36.09 63.13L36.09 84.13L17.9 94.63L-0.29 84.13L-0.29 63.13zM36.09 210.13L54.27 220.63L54.27 241.63L36.09 252.13L17.9 241.63L17.9 220.63zM36.09 273.13L54.27 283.63L54.27 304.63L36.09 315.13L17.9 304.63L17.9 283.63zM36.09 336.13L54.27 346.63L54.27 367.63L36.09 378.13L17.9 367.63L17.9 346.63zM36.09 399.13L54.27 409.63L54.27 430.63L36.09 441.13L17.9 430.63L17.9 409.63zM36.09 525.13L54.27 535.63L54.27 556.63L36.09 567.13L17.9 556.63L17.9 535.63zM36.09 651.13L54.27 661.63L54.27 682.63L36.09 693.13L17.9 682.63L17.9 661.63zM36.09 903.13L54.27 913.63L54.27 934.63L36.09 945.13L17.9 934.63L17.9 913.63zM17.9 934.63L36.09 945.13L36.09 966.13L17.9 976.63L-0.29 966.13L-0.29 945.13zM36.09 1029.13L54.27 1039.63L54.27 1060.63L36.09 1071.13L17.9 1060.63L17.9 1039.63zM54.27 -10.37L72.46 0.13L72.46 21.13L54.27 31.63L36.09 21.13L36.09 0.13zM54.27 115.63L72.46 126.13L72.46 147.13L54.27 157.63L36.09 147.13L36.09 126.13zM72.46 210.13L90.65 220.63L90.65 241.63L72.46 252.13L54.27 241.63L54.27 220.63zM54.27 304.63L72.46 315.13L72.46 336.13L54.27 346.63L36.09 336.13L36.09 315.13zM72.46 336.13L90.65 346.63L90.65 367.63L72.46 378.13L54.27 367.63L54.27 346.63zM72.46 399.13L90.65 409.63L90.65 430.63L72.46 441.13L54.27 430.63L54.27 409.63zM72.46 525.13L90.65 535.63L90.65 556.63L72.46 567.13L54.27 556.63L54.27 535.63zM72.46 651.13L90.65 661.63L90.65 682.63L72.46 693.13L54.27 682.63L54.27 661.63zM54.27 745.63L72.46 756.13L72.46 777.13L54.27 787.63L36.09 777.13L36.09 756.13zM54.27 871.63L72.46 882.13L72.46 903.13L54.27 913.63L36.09 903.13L36.09 882.13zM72.46 1029.13L90.65 1039.63L90.65 1060.63L72.46 1071.13L54.27 1060.63L54.27 1039.63zM108.84 147.13L127.02 157.63L127.02 178.63L108.84 189.13L90.65 178.63L90.65 157.63zM108.84 399.13L127.02 409.63L127.02 430.63L108.84 441.13L90.65 430.63L90.65 409.63zM90.65 556.63L108.84 567.13L108.84 588.13L90.65 598.63L72.46 588.13L72.46 567.13zM108.84 651.13L127.02 661.63L127.02 682.63L108.84 693.13L90.65 682.63L90.65 661.63zM90.65 871.63L108.84 882.13L108.84 903.13L90.65 913.63L72.46 903.13L72.46 882.13zM108.84 903.13L127.02 913.63L127.02 934.63L108.84 945.13L90.65 934.63L90.65 913.63zM108.84 966.13L127.02 976.63L127.02 997.63L108.84 1008.13L90.65 997.63L90.65 976.63zM127.02 -10.37L145.21 0.13L145.21 21.13L127.02 31.63L108.84 21.13L108.84 0.13zM145.21 147.13L163.4 157.63L163.4 178.63L145.21 189.13L127.02 178.63L127.02 157.63zM127.02 178.63L145.21 189.13L145.21 210.13L127.02 220.63L108.84 210.13L108.84 189.13zM145.21 336.13L163.4 346.63L163.4 367.63L145.21 378.13L127.02 367.63L127.02 346.63zM145.21 399.13L163.4 409.63L163.4 430.63L145.21 441.13L127.02 430.63L127.02 409.63zM145.21 651.13L163.4 661.63L163.4 682.63L145.21 693.13L127.02 682.63L127.02 661.63zM127.02 808.63L145.21 819.13L145.21 840.13L127.02 850.63L108.84 840.13L108.84 819.13zM145.21 1029.13L163.4 1039.63L163.4 1060.63L145.21 1071.13L127.02 1060.63L127.02 1039.63zM127.02 1060.63L145.21 1071.13L145.21 1092.13L127.02 1102.63L108.84 1092.13L108.84 1071.13zM163.4 52.63L181.58 63.13L181.58 84.13L163.4 94.63L145.21 84.13L145.21 63.13zM163.4 115.63L181.58 126.13L181.58 147.13L163.4 157.63L145.21 147.13L145.21 126.13zM163.4 241.63L181.58 252.13L181.58 273.13L163.4 283.63L145.21 273.13L145.21 252.13zM181.58 399.13L199.77 409.63L199.77 430.63L181.58 441.13L163.4 430.63L163.4 409.63zM163.4 493.63L181.58 504.13L181.58 525.13L163.4 535.63L145.21 525.13L145.21 504.13zM181.58 651.13L199.77 661.63L199.77 682.63L181.58 693.13L163.4 682.63L163.4 661.63zM181.58 903.13L199.77 913.63L199.77 934.63L181.58 945.13L163.4 934.63L163.4 913.63zM181.58 1029.13L199.77 1039.63L199.77 1060.63L181.58 1071.13L163.4 1060.63L163.4 1039.63zM217.96 147.13L236.14 157.63L236.14 178.63L217.96 189.13L199.77 178.63L199.77 157.63zM199.77 178.63L217.96 189.13L217.96 210.13L199.77 220.63L181.58 210.13L181.58 189.13zM217.96 210.13L236.14 220.63L236.14 241.63L217.96 252.13L199.77 241.63L199.77 220.63zM217.96 336.13L236.14 346.63L236.14 367.63L217.96 378.13L199.77 367.63L199.77 346.63zM217.96 462.13L236.14 472.63L236.14 493.63L217.96 504.13L199.77 493.63L199.77 472.63zM199.77 493.63L217.96 504.13L217.96 525.13L199.77 535.63L181.58 525.13L181.58 504.13zM199.77 619.63L217.96 630.13L217.96 651.13L199.77 661.63L181.58 651.13L181.58 630.13zM217.96 651.13L236.14 661.63L236.14 682.63L217.96 693.13L199.77 682.63L199.77 661.63zM217.96 714.13L236.14 724.63L236.14 745.63L217.96 756.13L199.77 745.63L199.77 724.63zM199.77 808.63L217.96 819.13L217.96 840.13L199.77 850.63L181.58 840.13L181.58 819.13zM217.96 966.13L236.14 976.63L236.14 997.63L217.96 1008.13L199.77 997.63L199.77 976.63zM236.14 -10.37L254.33 0.13L254.33 21.13L236.14 31.63L217.96 21.13L217.96 0.13zM254.33 147.13L272.52 157.63L272.52 178.63L254.33 189.13L236.14 178.63L236.14 157.63zM236.14 241.63L254.33 252.13L254.33 273.13L236.14 283.63L217.96 273.13L217.96 252.13zM236.14 304.63L254.33 315.13L254.33 336.13L236.14 346.63L217.96 336.13L217.96 315.13zM236.14 619.63L254.33 630.13L254.33 651.13L236.14 661.63L217.96 651.13L217.96 630.13zM236.14 997.63L254.33 1008.13L254.33 1029.13L236.14 1039.63L217.96 1029.13L217.96 1008.13zM272.52 -10.37L290.71 0.13L290.71 21.13L272.52 31.63L254.33 21.13L254.33 0.13zM272.52 115.63L290.71 126.13L290.71 147.13L272.52 157.63L254.33 147.13L254.33 126.13zM290.71 336.13L308.89 346.63L308.89 367.63L290.71 378.13L272.52 367.63L272.52 346.63zM290.71 462.13L308.89 472.63L308.89 493.63L290.71 504.13L272.52 493.63L272.52 472.63zM290.71 651.13L308.89 661.63L308.89 682.63L290.71 693.13L272.52 682.63L272.52 661.63zM272.52 997.63L290.71 1008.13L290.71 1029.13L272.52 1039.63L254.33 1029.13L254.33 1008.13zM290.71 1029.13L308.89 1039.63L308.89 1060.63L290.71 1071.13L272.52 1060.63L272.52 1039.63zM272.52 1060.63L290.71 1071.13L290.71 1092.13L272.52 1102.63L254.33 1092.13L254.33 1071.13zM308.89 -10.37L327.08 0.13L327.08 21.13L308.89 31.63L290.71 21.13L290.71 0.13zM327.08 147.13L345.27 157.63L345.27 178.63L327.08 189.13L308.89 178.63L308.89 157.63zM327.08 210.13L345.27 220.63L345.27 241.63L327.08 252.13L308.89 241.63L308.89 220.63zM308.89 493.63L327.08 504.13L327.08 525.13L308.89 535.63L290.71 525.13L290.71 504.13zM327.08 777.13L345.27 787.63L345.27 808.63L327.08 819.13L308.89 808.63L308.89 787.63zM327.08 840.13L345.27 850.63L345.27 871.63L327.08 882.13L308.89 871.63L308.89 850.63zM308.89 871.63L327.08 882.13L327.08 903.13L308.89 913.63L290.71 903.13L290.71 882.13zM345.27 52.63L363.45 63.13L363.45 84.13L345.27 94.63L327.08 84.13L327.08 63.13zM363.45 147.13L381.64 157.63L381.64 178.63L363.45 189.13L345.27 178.63L345.27 157.63zM345.27 304.63L363.45 315.13L363.45 336.13L345.27 346.63L327.08 336.13L327.08 315.13zM345.27 430.63L363.45 441.13L363.45 462.13L345.27 472.63L327.08 462.13L327.08 441.13zM345.27 556.63L363.45 567.13L363.45 588.13L345.27 598.63L327.08 588.13L327.08 567.13zM363.45 777.13L381.64 787.63L381.64 808.63L363.45 819.13L345.27 808.63L345.27 787.63zM345.27 808.63L363.45 819.13L363.45 840.13L345.27 850.63L327.08 840.13L327.08 819.13zM345.27 871.63L363.45 882.13L363.45 903.13L345.27 913.63L327.08 903.13L327.08 882.13zM363.45 966.13L381.64 976.63L381.64 997.63L363.45 1008.13L345.27 997.63L345.27 976.63zM381.64 178.63L399.83 189.13L399.83 210.13L381.64 220.63L363.45 210.13L363.45 189.13zM381.64 304.63L399.83 315.13L399.83 336.13L381.64 346.63L363.45 336.13L363.45 315.13zM399.83 462.13L418.02 472.63L418.02 493.63L399.83 504.13L381.64 493.63L381.64 472.63zM399.83 525.13L418.02 535.63L418.02 556.63L399.83 567.13L381.64 556.63L381.64 535.63zM381.64 619.63L399.83 630.13L399.83 651.13L381.64 661.63L363.45 651.13L363.45 630.13zM399.83 651.13L418.02 661.63L418.02 682.63L399.83 693.13L381.64 682.63L381.64 661.63zM381.64 808.63L399.83 819.13L399.83 840.13L381.64 850.63L363.45 840.13L363.45 819.13zM418.02 178.63L436.2 189.13L436.2 210.13L418.02 220.63L399.83 210.13L399.83 189.13zM418.02 241.63L436.2 252.13L436.2 273.13L418.02 283.63L399.83 273.13L399.83 252.13zM436.2 336.13L454.39 346.63L454.39 367.63L436.2 378.13L418.02 367.63L418.02 346.63zM436.2 903.13L454.39 913.63L454.39 934.63L436.2 945.13L418.02 934.63L418.02 913.63zM418.02 1060.63L436.2 1071.13L436.2 1092.13L418.02 1102.63L399.83 1092.13L399.83 1071.13zM472.58 21.13L490.76 31.63L490.76 52.63L472.58 63.13L454.39 52.63L454.39 31.63zM454.39 52.63L472.58 63.13L472.58 84.13L454.39 94.63L436.2 84.13L436.2 63.13zM472.58 147.13L490.76 157.63L490.76 178.63L472.58 189.13L454.39 178.63L454.39 157.63zM472.58 399.13L490.76 409.63L490.76 430.63L472.58 441.13L454.39 430.63L454.39 409.63zM472.58 525.13L490.76 535.63L490.76 556.63L472.58 567.13L454.39 556.63L454.39 535.63zM472.58 651.13L490.76 661.63L490.76 682.63L472.58 693.13L454.39 682.63L454.39 661.63zM454.39 745.63L472.58 756.13L472.58 777.13L454.39 787.63L436.2 777.13L436.2 756.13zM454.39 871.63L472.58 882.13L472.58 903.13L454.39 913.63L436.2 903.13L436.2 882.13zM454.39 934.63L472.58 945.13L472.58 966.13L454.39 976.63L436.2 966.13L436.2 945.13zM508.95 21.13L527.14 31.63L527.14 52.63L508.95 63.13L490.76 52.63L490.76 31.63zM490.76 52.63L508.95 63.13L508.95 84.13L490.76 94.63L472.58 84.13L472.58 63.13zM490.76 304.63L508.95 315.13L508.95 336.13L490.76 346.63L472.58 336.13L472.58 315.13zM490.76 367.63L508.95 378.13L508.95 399.13L490.76 409.63L472.58 399.13L472.58 378.13zM508.95 399.13L527.14 409.63L527.14 430.63L508.95 441.13L490.76 430.63L490.76 409.63zM490.76 430.63L508.95 441.13L508.95 462.13L490.76 472.63L472.58 462.13L472.58 441.13zM508.95 525.13L527.14 535.63L527.14 556.63L508.95 567.13L490.76 556.63L490.76 535.63zM508.95 651.13L527.14 661.63L527.14 682.63L508.95 693.13L490.76 682.63L490.76 661.63zM508.95 903.13L527.14 913.63L527.14 934.63L508.95 945.13L490.76 934.63L490.76 913.63zM508.95 966.13L527.14 976.63L527.14 997.63L508.95 1008.13L490.76 997.63L490.76 976.63zM545.32 336.13L563.51 346.63L563.51 367.63L545.32 378.13L527.14 367.63L527.14 346.63zM527.14 493.63L545.32 504.13L545.32 525.13L527.14 535.63L508.95 525.13L508.95 504.13zM545.32 588.13L563.51 598.63L563.51 619.63L545.32 630.13L527.14 619.63L527.14 598.63zM527.14 682.63L545.32 693.13L545.32 714.13L527.14 724.63L508.95 714.13L508.95 693.13zM527.14 745.63L545.32 756.13L545.32 777.13L527.14 787.63L508.95 777.13L508.95 756.13zM545.32 840.13L563.51 850.63L563.51 871.63L545.32 882.13L527.14 871.63L527.14 850.63zM527.14 934.63L545.32 945.13L545.32 966.13L527.14 976.63L508.95 966.13L508.95 945.13zM545.32 966.13L563.51 976.63L563.51 997.63L545.32 1008.13L527.14 997.63L527.14 976.63zM563.51 115.63L581.7 126.13L581.7 147.13L563.51 157.63L545.32 147.13L545.32 126.13zM563.51 430.63L581.7 441.13L581.7 462.13L563.51 472.63L545.32 462.13L545.32 441.13zM581.7 462.13L599.89 472.63L599.89 493.63L581.7 504.13L563.51 493.63L563.51 472.63zM563.51 682.63L581.7 693.13L581.7 714.13L563.51 724.63L545.32 714.13L545.32 693.13zM581.7 1029.13L599.89 1039.63L599.89 1060.63L581.7 1071.13L563.51 1060.63L563.51 1039.63zM618.07 147.13L636.26 157.63L636.26 178.63L618.07 189.13L599.89 178.63L599.89 157.63zM599.89 178.63L618.07 189.13L618.07 210.13L599.89 220.63L581.7 210.13L581.7 189.13zM599.89 871.63L618.07 882.13L618.07 903.13L599.89 913.63L581.7 903.13L581.7 882.13zM636.26 52.63L654.45 63.13L654.45 84.13L636.26 94.63L618.07 84.13L618.07 63.13zM654.45 210.13L672.63 220.63L672.63 241.63L654.45 252.13L636.26 241.63L636.26 220.63zM636.26 304.63L654.45 315.13L654.45 336.13L636.26 346.63L618.07 336.13L618.07 315.13zM636.26 556.63L654.45 567.13L654.45 588.13L636.26 598.63L618.07 588.13L618.07 567.13zM654.45 651.13L672.63 661.63L672.63 682.63L654.45 693.13L636.26 682.63L636.26 661.63zM654.45 714.13L672.63 724.63L672.63 745.63L654.45 756.13L636.26 745.63L636.26 724.63zM636.26 808.63L654.45 819.13L654.45 840.13L636.26 850.63L618.07 840.13L618.07 819.13zM654.45 840.13L672.63 850.63L672.63 871.63L654.45 882.13L636.26 871.63L636.26 850.63zM672.63 115.63L690.82 126.13L690.82 147.13L672.63 157.63L654.45 147.13L654.45 126.13zM690.82 336.13L709.01 346.63L709.01 367.63L690.82 378.13L672.63 367.63L672.63 346.63zM672.63 430.63L690.82 441.13L690.82 462.13L672.63 472.63L654.45 462.13L654.45 441.13zM690.82 462.13L709.01 472.63L709.01 493.63L690.82 504.13L672.63 493.63L672.63 472.63zM672.63 493.63L690.82 504.13L690.82 525.13L672.63 535.63L654.45 525.13L654.45 504.13zM672.63 745.63L690.82 756.13L690.82 777.13L672.63 787.63L654.45 777.13L654.45 756.13zM690.82 840.13L709.01 850.63L709.01 871.63L690.82 882.13L672.63 871.63L672.63 850.63zM727.19 21.13L745.38 31.63L745.38 52.63L727.19 63.13L709.01 52.63L709.01 31.63zM709.01 52.63L727.19 63.13L727.19 84.13L709.01 94.63L690.82 84.13L690.82 63.13zM727.19 84.13L745.38 94.63L745.38 115.63L727.19 126.13L709.01 115.63L709.01 94.63zM709.01 115.63L727.19 126.13L727.19 147.13L709.01 157.63L690.82 147.13L690.82 126.13zM709.01 367.63L727.19 378.13L727.19 399.13L709.01 409.63L690.82 399.13L690.82 378.13zM709.01 619.63L727.19 630.13L727.19 651.13L709.01 661.63L690.82 651.13L690.82 630.13zM727.19 777.13L745.38 787.63L745.38 808.63L727.19 819.13L709.01 808.63L709.01 787.63zM709.01 871.63L727.19 882.13L727.19 903.13L709.01 913.63L690.82 903.13L690.82 882.13zM727.19 966.13L745.38 976.63L745.38 997.63L727.19 1008.13L709.01 997.63L709.01 976.63zM727.19 1029.13L745.38 1039.63L745.38 1060.63L727.19 1071.13L709.01 1060.63L709.01 1039.63zM763.57 21.13L781.76 31.63L781.76 52.63L763.57 63.13L745.38 52.63L745.38 31.63zM763.57 147.13L781.76 157.63L781.76 178.63L763.57 189.13L745.38 178.63L745.38 157.63zM745.38 178.63L763.57 189.13L763.57 210.13L745.38 220.63L727.19 210.13L727.19 189.13zM763.57 210.13L781.76 220.63L781.76 241.63L763.57 252.13L745.38 241.63L745.38 220.63zM763.57 399.13L781.76 409.63L781.76 430.63L763.57 441.13L745.38 430.63L745.38 409.63zM745.38 430.63L763.57 441.13L763.57 462.13L745.38 472.63L727.19 462.13L727.19 441.13zM763.57 462.13L781.76 472.63L781.76 493.63L763.57 504.13L745.38 493.63L745.38 472.63zM763.57 525.13L781.76 535.63L781.76 556.63L763.57 567.13L745.38 556.63L745.38 535.63zM745.38 556.63L763.57 567.13L763.57 588.13L745.38 598.63L727.19 588.13L727.19 567.13zM745.38 745.63L763.57 756.13L763.57 777.13L745.38 787.63L727.19 777.13L727.19 756.13zM763.57 903.13L781.76 913.63L781.76 934.63L763.57 945.13L745.38 934.63L745.38 913.63zM781.76 115.63L799.94 126.13L799.94 147.13L781.76 157.63L763.57 147.13L763.57 126.13zM781.76 241.63L799.94 252.13L799.94 273.13L781.76 283.63L763.57 273.13L763.57 252.13zM781.76 430.63L799.94 441.13L799.94 462.13L781.76 472.63L763.57 462.13L763.57 441.13zM781.76 619.63L799.94 630.13L799.94 651.13L781.76 661.63L763.57 651.13L763.57 630.13zM799.94 777.13L818.13 787.63L818.13 808.63L799.94 819.13L781.76 808.63L781.76 787.63zM781.76 808.63L799.94 819.13L799.94 840.13L781.76 850.63L763.57 840.13L763.57 819.13zM799.94 840.13L818.13 850.63L818.13 871.63L799.94 882.13L781.76 871.63L781.76 850.63zM799.94 966.13L818.13 976.63L818.13 997.63L799.94 1008.13L781.76 997.63L781.76 976.63zM781.76 997.63L799.94 1008.13L799.94 1029.13L781.76 1039.63L763.57 1029.13L763.57 1008.13zM799.94 1029.13L818.13 1039.63L818.13 1060.63L799.94 1071.13L781.76 1060.63L781.76 1039.63zM781.76 1060.63L799.94 1071.13L799.94 1092.13L781.76 1102.63L763.57 1092.13L763.57 1071.13zM818.13 -10.37L836.32 0.13L836.32 21.13L818.13 31.63L799.94 21.13L799.94 0.13zM818.13 241.63L836.32 252.13L836.32 273.13L818.13 283.63L799.94 273.13L799.94 252.13zM836.32 336.13L854.5 346.63L854.5 367.63L836.32 378.13L818.13 367.63L818.13 346.63zM836.32 462.13L854.5 472.63L854.5 493.63L836.32 504.13L818.13 493.63L818.13 472.63zM836.32 525.13L854.5 535.63L854.5 556.63L836.32 567.13L818.13 556.63L818.13 535.63zM836.32 966.13L854.5 976.63L854.5 997.63L836.32 1008.13L818.13 997.63L818.13 976.63zM872.69 147.13L890.88 157.63L890.88 178.63L872.69 189.13L854.5 178.63L854.5 157.63zM872.69 336.13L890.88 346.63L890.88 367.63L872.69 378.13L854.5 367.63L854.5 346.63zM872.69 462.13L890.88 472.63L890.88 493.63L872.69 504.13L854.5 493.63L854.5 472.63zM854.5 556.63L872.69 567.13L872.69 588.13L854.5 598.63L836.32 588.13L836.32 567.13zM872.69 588.13L890.88 598.63L890.88 619.63L872.69 630.13L854.5 619.63L854.5 598.63zM854.5 619.63L872.69 630.13L872.69 651.13L854.5 661.63L836.32 651.13L836.32 630.13zM872.69 840.13L890.88 850.63L890.88 871.63L872.69 882.13L854.5 871.63L854.5 850.63zM890.88 -10.37L909.07 0.13L909.07 21.13L890.88 31.63L872.69 21.13L872.69 0.13zM909.07 21.13L927.25 31.63L927.25 52.63L909.07 63.13L890.88 52.63L890.88 31.63zM909.07 147.13L927.25 157.63L927.25 178.63L909.07 189.13L890.88 178.63L890.88 157.63zM890.88 241.63L909.07 252.13L909.07 273.13L890.88 283.63L872.69 273.13L872.69 252.13zM890.88 367.63L909.07 378.13L909.07 399.13L890.88 409.63L872.69 399.13L872.69 378.13zM909.07 588.13L927.25 598.63L927.25 619.63L909.07 630.13L890.88 619.63L890.88 598.63zM909.07 651.13L927.25 661.63L927.25 682.63L909.07 693.13L890.88 682.63L890.88 661.63zM890.88 808.63L909.07 819.13L909.07 840.13L890.88 850.63L872.69 840.13L872.69 819.13zM909.07 966.13L927.25 976.63L927.25 997.63L909.07 1008.13L890.88 997.63L890.88 976.63zM927.25 115.63L945.44 126.13L945.44 147.13L927.25 157.63L909.07 147.13L909.07 126.13zM945.44 336.13L963.63 346.63L963.63 367.63L945.44 378.13L927.25 367.63L927.25 346.63zM945.44 462.13L963.63 472.63L963.63 493.63L945.44 504.13L927.25 493.63L927.25 472.63zM927.25 493.63L945.44 504.13L945.44 525.13L927.25 535.63L909.07 525.13L909.07 504.13zM945.44 588.13L963.63 598.63L963.63 619.63L945.44 630.13L927.25 619.63L927.25 598.63zM927.25 619.63L945.44 630.13L945.44 651.13L927.25 661.63L909.07 651.13L909.07 630.13zM927.25 808.63L945.44 819.13L945.44 840.13L927.25 850.63L909.07 840.13L909.07 819.13zM963.63 -10.37L981.81 0.13L981.81 21.13L963.63 31.63L945.44 21.13L945.44 0.13zM963.63 115.63L981.81 126.13L981.81 147.13L963.63 157.63L945.44 147.13L945.44 126.13zM981.81 273.13L1000 283.63L1000 304.63L981.81 315.13L963.63 304.63L963.63 283.63zM963.63 367.63L981.81 378.13L981.81 399.13L963.63 409.63L945.44 399.13L945.44 378.13zM963.63 745.63L981.81 756.13L981.81 777.13L963.63 787.63L945.44 777.13L945.44 756.13zM963.63 997.63L981.81 1008.13L981.81 1029.13L963.63 1039.63L945.44 1029.13L945.44 1008.13zM963.63 1060.63L981.81 1071.13L981.81 1092.13L963.63 1102.63L945.44 1092.13L945.44 1071.13zM1000 -10.37L1018.19 0.13L1018.19 21.13L1000 31.63L981.81 21.13L981.81 0.13zM1000 115.63L1018.19 126.13L1018.19 147.13L1000 157.63L981.81 147.13L981.81 126.13zM1018.19 210.13L1036.37 220.63L1036.37 241.63L1018.19 252.13L1000 241.63L1000 220.63zM1000 304.63L1018.19 315.13L1018.19 336.13L1000 346.63L981.81 336.13L981.81 315.13zM1000 430.63L1018.19 441.13L1018.19 462.13L1000 472.63L981.81 462.13L981.81 441.13zM1018.19 462.13L1036.37 472.63L1036.37 493.63L1018.19 504.13L1000 493.63L1000 472.63zM1000 682.63L1018.19 693.13L1018.19 714.13L1000 724.63L981.81 714.13L981.81 693.13zM1000 997.63L1018.19 1008.13L1018.19 1029.13L1000 1039.63L981.81 1029.13L981.81 1008.13zM1036.37 -10.37L1054.56 0.13L1054.56 21.13L1036.37 31.63L1018.19 21.13L1018.19 0.13zM1054.56 21.13L1072.75 31.63L1072.75 52.63L1054.56 63.13L1036.37 52.63L1036.37 31.63zM1036.37 52.63L1054.56 63.13L1054.56 84.13L1036.37 94.63L1018.19 84.13L1018.19 63.13zM1036.37 178.63L1054.56 189.13L1054.56 210.13L1036.37 220.63L1018.19 210.13L1018.19 189.13zM1036.37 241.63L1054.56 252.13L1054.56 273.13L1036.37 283.63L1018.19 273.13L1018.19 252.13zM1054.56 399.13L1072.75 409.63L1072.75 430.63L1054.56 441.13L1036.37 430.63L1036.37 409.63zM1054.56 651.13L1072.75 661.63L1072.75 682.63L1054.56 693.13L1036.37 682.63L1036.37 661.63zM1054.56 714.13L1072.75 724.63L1072.75 745.63L1054.56 756.13L1036.37 745.63L1036.37 724.63zM1054.56 1029.13L1072.75 1039.63L1072.75 1060.63L1054.56 1071.13L1036.37 1060.63L1036.37 1039.63zM1036.37 1060.63L1054.56 1071.13L1054.56 1092.13L1036.37 1102.63L1018.19 1092.13L1018.19 1071.13zM1090.94 21.13L1109.12 31.63L1109.12 52.63L1090.94 63.13L1072.75 52.63L1072.75 31.63zM1090.94 462.13L1109.12 472.63L1109.12 493.63L1090.94 504.13L1072.75 493.63L1072.75 472.63z" stroke="url(#SvgjsLinearGradient1054)" stroke-width="2"></path>
    </g>
    <defs>
        <mask id="SvgjsMask1053">
            <rect width="1080" height="1080" fill="#ffffff"></rect>
        </mask>
        <linearGradient x1="0" y1="0" x2="1080" y2="1080" gradientUnits="userSpaceOnUse" id="SvgjsLinearGradient1054">
            <stop stop-color="#0e2a47" offset="0"></stop>
            <stop stop-color="rgba(170, 27, 100, 1)" offset="1"></stop>
        </linearGradient>
    </defs>
</svg>